#!OML:ASF E:\acrobat2\Project_11_07_03\Capture day 1\Session 1\Acrobat.ASF
:FULLY-SPECIFIED
:DEGREES
517
root 11.8904 25.6105 7.9626 -96.4578 -43.4413 -69.3008
lowerback 5.44205 -1.14467 -12.1822
upperback 5.08142 -1.5335 -11.0526
thorax 2.37479 -0.946313 -4.82499
lowerneck 3.18613 -14.2811 -10.4179
upperneck -5.59765 -19.1704 -7.3595
head -2.08973 -8.72057 -0.245673
rclavicle 1.27222e-014 1.78111e-013
rhumerus -45.3944 0.876952 -84.0763
rradius 10.9628
rwrist 14.6976
rhand 22.3691 -40.9638
rfingers 7.12502
rthumb 46.7353 -63.7458
lclavicle 1.27222e-014 1.78111e-013
lhumerus -34.9882 25.8816 53.7467
lradius 31.5608
lwrist 22.2841
lhand -35.0455 -35.7935
lfingers 7.12502
lthumb -8.18866 -5.9722
rfemur -8.47773 -10.7719 20.0723
rtibia 25.8105
rfoot 29.3384 -11.5856
rtoes 17.9978
lfemur -5.22535 -6.87349 1.09901
ltibia 10.9106
lfoot 12.3584 13.218
ltoes 21.3273
518
root 11.8779 25.4131 7.88961 -93.2144 -45.5389 -74.7108
lowerback 6.14924 -1.09649 -11.7604
upperback 5.83299 -1.4812 -10.591
thorax 2.77521 -0.94238 -4.56255
lowerneck 3.20499 -14.0208 -10.4455
upperneck -3.82579 -18.7352 -7.62331
head -1.53636 -8.66552 -0.39798
rclavicle 2.38542e-014 -1.57437e-013
rhumerus -45.7003 -1.60693 -84.4843
rradius 10.7899
rwrist 13.4625
rhand 22.7265 -40.9061
rfingers 7.12502
rthumb 47.066 -63.5432
lclavicle 2.38542e-014 -1.57437e-013
lhumerus -33.5862 26.0706 55.7063
lradius 31.3968
lwrist 21.3328
lhand -34.8643 -35.6408
lfingers 7.12502
lthumb -8.01382 -5.81272
rfemur -9.25005 -9.45361 19.4273
rtibia 24.0163
rfoot 27.8576 -11.6525
rtoes 16.2657
lfemur -7.53566 -6.41119 -0.251409
ltibia 9.74372
lfoot 13.0057 12.1895
ltoes 22.3446
519
root 11.8636 25.2107 7.82233 -89.4118 -47.5995 -80.5468
lowerback 6.83628 -1.0853 -11.1898
upperback 6.54081 -1.48019 -10.0316
thorax 3.13529 -0.95827 -4.27507
lowerneck 3.16474 -13.7231 -10.3699
upperneck -2.02656 -18.2364 -7.83349
head -0.981498 -8.58701 -0.551372
rclavicle -1.35174e-014 -2.06736e-013
rhumerus -45.7119 -3.81659 -84.8936
rradius 10.6368
rwrist 12.207
rhand 23.0754 -40.8361
rfingers 7.12502
rthumb 47.3885 -63.3292
lclavicle -1.35174e-014 -2.06736e-013
lhumerus -32.215 26.0022 57.7087
lradius 31.255
lwrist 20.4558
lhand -34.6886 -35.4227
lfingers 7.12502
lthumb -7.84423 -5.58819
rfemur -9.98869 -8.23791 18.776
rtibia 22.5755
rfoot 26.5846 -11.3519
rtoes 12.9151
lfemur -9.8072 -6.04894 -1.66969
ltibia 8.92924
lfoot 13.8235 10.9872
ltoes 23.5894
520
root 11.848 25.0038 7.75958 -85.0184 -49.5409 -86.8234
lowerback 7.47803 -1.11011 -10.5233
upperback 7.18931 -1.52766 -9.38611
thorax 3.45446 -0.993577 -3.94767
lowerneck 3.08703 -13.4171 -10.2355
upperneck -0.245859 -17.7197 -8.01968
head -0.441442 -8.49814 -0.704868
rclavicle -3.02153e-014 1.60618e-013
rhumerus -45.4332 -5.67507 -85.3395
rradius 10.4951
rwrist 10.9666
rhand 23.5096 -40.7437
rfingers 7.12502
rthumb 47.7894 -63.0542
lclavicle -3.02153e-014 1.60618e-013
lhumerus -30.9266 25.8001 59.6721
lradius 31.108
lwrist 19.5811
lhand -34.4694 -35.1625
lfingers 7.12502
lthumb -7.6327 -5.32026
rfemur -10.7069 -7.14445 18.1183
rtibia 21.4395
rfoot 25.5432 -10.7322
rtoes 8.3484
lfemur -12.0001 -5.75257 -3.17003
ltibia 8.41755
lfoot 14.9918 9.40438
ltoes 23.2538
521
root 11.8326 24.793 7.70078 -80.0483 -51.254 -93.4979
lowerback 8.01957 -1.15953 -9.82473
upperback 7.77239 -1.60115 -8.68412
thorax 3.75963 -1.03967 -3.58039
lowerneck 3.03361 -13.1234 -10.1196
upperneck 1.44735 -17.2265 -8.18598
head 0.0644191 -8.41014 -0.844091
rclavicle -5.00937e-014 -6.52014e-014
rhumerus -44.8693 -7.13371 -85.8536
rradius 10.3675
rwrist 9.75898
rhand 24.0331 -40.6437
rfingers 7.12502
rthumb 48.272 -62.7286
lclavicle -5.00937e-014 -6.52014e-014
lhumerus -29.7844 25.5216 61.545
lradius 30.9823
lwrist 18.6754
lhand -34.1773 -34.8799
lfingers 7.12502
lthumb -7.35069 -5.02759
rfemur -11.4181 -6.16162 17.4211
rtibia 20.559
rfoot 24.7374 -9.91587
rtoes 3.53818
lfemur -14.057 -5.55495 -4.77427
ltibia 8.09759
lfoot 16.2818 7.76445
ltoes 22.4346
522
root 11.8188 24.5778 7.64525 -74.5806 -52.6305 -100.474
lowerback 8.42057 -1.2202 -9.1693
upperback 8.2881 -1.68038 -7.95687
thorax 4.07456 -1.08978 -3.16798
lowerneck 3.02428 -12.8329 -10.0606
upperneck 3.04869 -16.7509 -8.29658
head 0.549651 -8.32074 -0.955601
rclavicle 1.21656e-013 8.11041e-014
rhumerus -44.0476 -7.8367 -86.6966
rradius 10.341
rwrist 8.16036
rhand 24.5321 -40.6186
rfingers 7.12502
rthumb 48.7312 -62.4829
lclavicle 1.21656e-013 8.11041e-014
lhumerus -28.8077 25.2028 63.2906
lradius 30.8719
lwrist 17.707
lhand -33.8173 -34.584
lfingers 7.12502
lthumb -7.00322 -4.71987
rfemur -12.1156 -5.27401 16.6285
rtibia 19.8479
rfoot 24.104 -9.06631
rtoes -0.469213
lfemur -15.9015 -5.55646 -6.49236
ltibia 7.81756
lfoot 17.5135 6.38464
ltoes 22.2354
523
root 11.8074 24.3563 7.59123 -68.7395 -53.6141 -107.645
lowerback 8.70885 -1.27697 -8.59567
upperback 8.74674 -1.75167 -7.22605
thorax 4.39665 -1.13919 -2.71258
lowerneck 3.02308 -12.5362 -10.0295
upperneck 4.58195 -16.2761 -8.3337
head 1.02969 -8.2249 -1.04133
rclavicle -1.9958e-013 -7.4743e-014
rhumerus -43.0016 -7.58407 -87.9896
rradius 10.4842
rwrist 5.91121
rhand 24.924 -40.6937
rfingers 7.12502
rthumb 49.0913 -62.3808
lclavicle -1.9958e-013 -7.4743e-014
lhumerus -27.9959 24.8476 64.9005
lradius 30.7937
lwrist 16.6397
lhand -33.3999 -34.2291
lfingers 7.12502
lthumb -6.60023 -4.35199
rfemur -12.7534 -4.48246 15.7377
rtibia 19.2487
rfoot 23.5931 -8.39437
rtoes -2.14958
lfemur -17.4784 -5.66054 -8.3279
ltibia 7.5175
lfoot 18.7209 5.25434
ltoes 22.1622
524
root 11.798 24.1263 7.53704 -62.6356 -54.2348 -114.956
lowerback 8.95 -1.32217 -8.04319
upperback 9.15647 -1.81233 -6.48414
thorax 4.69526 -1.18397 -2.23709
lowerneck 2.97677 -12.2199 -10.0059
upperneck 6.1285 -15.7836 -8.21293
head 1.54501 -8.1206 -1.08565
rclavicle 4.53229e-014 1.90833e-014
rhumerus -41.8217 -6.49453 -89.55
rradius 10.8116
rwrist 3.11715
rhand 25.1838 -40.8098
rfingers 7.12502
rthumb 49.3298 -62.3774
lclavicle 4.53229e-014 1.90833e-014
lhumerus -27.2323 24.4006 66.3792
lradius 30.6521
lwrist 15.5219
lhand -32.938 -33.7259
lfingers 7.12502
lthumb -6.15432 -3.83533
rfemur -13.2589 -3.79534 14.8598
rtibia 18.675
rfoot 23.3254 -7.72439
rtoes -2.69678
lfemur -18.7432 -5.74914 -10.2046
ltibia 7.19125
lfoot 19.8821 4.28947
ltoes 21.8967
525
root 11.7909 23.8867 7.48173 -56.3651 -54.5252 -122.333
lowerback 9.17573 -1.33967 -7.44738
upperback 9.51665 -1.8423 -5.72064
thorax 4.94837 -1.21052 -1.765
lowerneck 2.87561 -11.8789 -9.92711
upperneck 7.67439 -15.267 -7.98547
head 2.08387 -8.00024 -1.10964
rclavicle 4.85035e-014 2.22639e-014
rhumerus -40.6009 -4.85732 -91.0854
rradius 11.2977
rwrist 0.0392898
rhand 25.1925 -40.9505
rfingers 7.12502
rthumb 49.3379 -62.5141
lclavicle 4.85035e-014 2.22639e-014
lhumerus -26.4829 23.8041 67.7589
lradius 30.4518
lwrist 14.4286
lhand -32.4687 -33.0429
lfingers 7.12502
lthumb -5.70127 -3.13964
rfemur -13.6071 -3.16221 14.0842
rtibia 18.0594
rfoot 23.2936 -7.0965
rtoes -2.24845
lfemur -19.693 -5.79256 -12.0306
ltibia 6.84576
lfoot 20.8973 3.54177
ltoes 21.8591
526
root 11.7864 23.637 7.42474 -50.0244 -54.5113 -129.67
lowerback 9.37292 -1.31367 -6.77371
upperback 9.82382 -1.81579 -4.94038
thorax 5.15664 -1.2031 -1.32155
lowerneck 2.62559 -11.5315 -9.76469
upperneck 9.31125 -14.75 -7.56388
head 2.70052 -7.8788 -1.10168
rclavicle 1.88448e-013 8.74653e-014
rhumerus -39.3669 -3.13868 -92.2553
rradius 11.8271
rwrist -2.86054
rhand 24.8512 -41.058
rfingers 7.12502
rthumb 49.0245 -62.7783
lclavicle 1.88448e-013 8.74653e-014
lhumerus -25.6879 23.029 69.0534
lradius 30.1815
lwrist 13.4183
lhand -31.9898 -32.1736
lfingers 7.12502
lthumb -5.2389 -2.25834
rfemur -13.8305 -2.52511 13.4635
rtibia 17.3736
rfoot 23.5158 -6.53484
rtoes -0.994295
lfemur -20.3738 -5.74729 -13.7501
ltibia 6.51886
lfoot 21.7582 2.81724
ltoes 21.1199
527
root 11.7851 23.3768 7.36476 -43.7391 -54.2026 -136.846
lowerback 9.5349 -1.2356 -6.03356
upperback 10.0892 -1.71734 -4.15996
thorax 5.33567 -1.15378 -0.919352
lowerneck 2.2413 -11.1993 -9.49171
upperneck 10.9914 -14.268 -7.02976
head 3.37175 -7.7643 -1.08564
rclavicle -6.12257e-014 -1.43125e-014
rhumerus -38.0247 -2.01404 -92.6726
rradius 12.1457
rwrist -4.84191
rhand 24.1076 -40.9998
rfingers 7.12502
rthumb 48.3406 -63.0521
lclavicle -6.12257e-014 -1.43125e-014
lhumerus -24.8193 22.1018 70.2459
lradius 29.8508
lwrist 12.5061
lhand -31.4671 -31.1808
lfingers 7.12502
lthumb -4.73414 -1.25367
rfemur -13.9465 -1.83766 13.0052
rtibia 16.6237
rfoot 23.8943 -6.07165
rtoes 0.678037
lfemur -20.7967 -5.77918 -15.2799
ltibia 6.20542
lfoot 22.3175 2.35133
ltoes 20.7467
